<?xml version="1.0" encoding="UTF-8" standalone="no"?>
<!-- Created with Inkscape (http://www.inkscape.org/) -->

<svg
   xmlns:dc="http://purl.org/dc/elements/1.1/"
   xmlns:cc="http://creativecommons.org/ns#"
   xmlns:rdf="http://www.w3.org/1999/02/22-rdf-syntax-ns#"
   xmlns:svg="http://www.w3.org/2000/svg"
   xmlns="http://www.w3.org/2000/svg"
   xmlns:sodipodi="http://sodipodi.sourceforge.net/DTD/sodipodi-0.dtd"
   xmlns:inkscape="http://www.inkscape.org/namespaces/inkscape"
   width="20.609053mm"
   height="11.977499mm"
   viewBox="0 0 73.024202 42.439957"
   id="svg4267"
   version="1.1"
   inkscape:version="0.91 r13725"
   sodipodi:docname="log4tc_white_logo.svg">
  <defs
     id="defs4269" />
  <sodipodi:namedview
     id="base"
     pagecolor="#ffffff"
     bordercolor="#666666"
     borderopacity="1.0"
     inkscape:pageopacity="0.0"
     inkscape:pageshadow="2"
     inkscape:zoom="15.839192"
     inkscape:cx="31.10445"
     inkscape:cy="19.164423"
     inkscape:document-units="px"
     inkscape:current-layer="layer1"
     showgrid="false"
     fit-margin-top="0"
     fit-margin-left="0"
     fit-margin-right="0"
     fit-margin-bottom="0"
     inkscape:window-width="2560"
     inkscape:window-height="1377"
     inkscape:window-x="-8"
     inkscape:window-y="-8"
     inkscape:window-maximized="1" />
  <metadata
     id="metadata4272">
    <rdf:RDF>
      <cc:Work
         rdf:about="">
        <dc:format>image/svg+xml</dc:format>
        <dc:type
           rdf:resource="http://purl.org/dc/dcmitype/StillImage" />
        <dc:title></dc:title>
      </cc:Work>
    </rdf:RDF>
  </metadata>
  <g
     inkscape:label="Layer 1"
     inkscape:groupmode="layer"
     id="layer1"
     transform="translate(-229.20219,-413.99937)">
    <path
       inkscape:export-ydpi="300"
       inkscape:export-xdpi="300"
       inkscape:export-filename="c:\temp\log4tc.png"
       sodipodi:nodetypes="cc"
       inkscape:connector-curvature="0"
       id="path930"
       d="m 231.59506,455.89767 c 30.48592,0.24094 61.72587,1.88844 69.48744,-40.24829"
       style="fill:none;stroke:#ffffff;stroke-width:0.93897635;stroke-linecap:round;stroke-linejoin:miter;stroke-miterlimit:4;stroke-dasharray:none;stroke-opacity:1;fill-opacity:1" />
    <text
       xml:space="preserve"
       style="font-style:normal;font-variant:normal;font-weight:normal;font-stretch:normal;font-size:17.49999809px;line-height:1.25;font-family:'Fira Code';-inkscape-font-specification:'Fira Code';letter-spacing:0px;word-spacing:0px;fill:#ffffff;fill-opacity:1;stroke:none;stroke-width:0.26458332;"
       x="271.48822"
       y="426.95901"
       id="text934"
       inkscape:export-filename="c:\temp\log4tc.png"
       inkscape:export-xdpi="300"
       inkscape:export-ydpi="300"><tspan
         sodipodi:role="line"
         id="tspan932"
         x="271.48822"
         y="426.95901"
         style="font-style:normal;font-variant:normal;font-weight:normal;font-stretch:normal;font-family:'Fira Code';-inkscape-font-specification:'Fira Code';fill:#ffffff;stroke-width:0.26458332;fill-opacity:1;">TC</tspan></text>
    <g
       transform="matrix(3.5433071,0,0,3.5433071,193.62468,53.408341)"
       aria-label="log"
       style="font-style:normal;font-variant:normal;font-weight:normal;font-stretch:normal;font-size:7.05555534px;line-height:1.25;font-family:'Fira Code';-inkscape-font-specification:'Fira Code';letter-spacing:0px;word-spacing:0px;fill:#000000;fill-opacity:1;stroke:none;stroke-width:0.26458332"
       id="g942"
       inkscape:export-filename="c:\temp\log4tc.png"
       inkscape:export-xdpi="300"
       inkscape:export-ydpi="300">
      <path
         d="m 11.77643,108.18136 c 0,0.33396 0.204611,0.50094 0.613833,0.50094 0.192852,0 0.399815,-0.0423 0.620889,-0.127 l 0.155222,0.43039 c -0.235185,0.127 -0.529166,0.1905 -0.881944,0.1905 -0.333963,0 -0.602074,-0.0917 -0.804334,-0.27517 -0.197555,-0.18344 -0.293559,-0.43275 -0.296333,-0.74789 l 0,-3.79588 -1.143,0 0,-0.47273 1.735667,0 z"
         style="font-style:normal;font-variant:normal;font-weight:normal;font-stretch:normal;font-size:7.05555534px;font-family:'Fira Code';-inkscape-font-specification:'Fira Code';stroke-width:0.26458332;fill:#ffffff;fill-opacity:1"
         id="path936"
         inkscape:connector-curvature="0"
         sodipodi:nodetypes="ssccscsccccs" />
      <path
         d="m 15.236738,105.30269 c 0.512703,0 0.905463,0.17404 1.178278,0.52211 0.277518,0.34337 0.416277,0.81374 0.416277,1.41111 0,0.58326 -0.141111,1.05363 -0.423333,1.41111 -0.277519,0.35278 -0.670278,0.52917 -1.178278,0.52917 -0.512703,0 -0.907814,-0.17169 -1.185333,-0.51506 -0.277519,-0.34807 -0.416278,-0.82079 -0.416278,-1.41816 0,-0.58797 0.138759,-1.05834 0.416278,-1.41111 0.282222,-0.35278 0.679685,-0.52917 1.192389,-0.52917 z"
         style="font-style:normal;font-variant:normal;font-weight:normal;font-stretch:normal;font-size:7.05555534px;font-family:'Fira Code';-inkscape-font-specification:'Fira Code';fill:#d40000;stroke-width:0.26458332"
         id="path938"
         inkscape:connector-curvature="0"
         sodipodi:nodetypes="scscscscs" />
      <path
         d="m 20.851466,105.54964 c -0.141111,0.047 -0.293981,0.0776 -0.458611,0.0917 -0.16463,0.009 -0.373944,0.0141 -0.627944,0.0141 0.43274,0.19755 0.649111,0.51035 0.649111,0.93839 0,0.37629 -0.124649,0.68203 -0.373945,0.91722 -0.249296,0.23048 -0.590315,0.34572 -1.023055,0.34572 -0.221074,0 -0.406871,-0.0259 -0.557389,-0.0776 -0.05645,0.0423 -0.103484,0.0964 -0.141111,0.16228 -0.03293,0.0659 -0.04939,0.13172 -0.04939,0.19755 0,0.21167 0.164629,0.3175 0.493889,0.3175 l 0.670278,0 c 0.244592,0 0.465666,0.0447 0.663222,0.13406 0.202259,0.0847 0.359833,0.20461 0.472722,0.35983 0.117592,0.15523 0.176389,0.32691 0.176389,0.51506 0,0.36219 -0.155223,0.6397 -0.465667,0.83255 -0.305741,0.19756 -0.740833,0.29634 -1.305277,0.29634 -0.573852,0 -0.978371,-0.0894 -1.213556,-0.26811 -0.235186,-0.17875 -0.352778,-0.46332 -0.352778,-0.85373 l 0.536223,0 c 0,0.15523 0.02822,0.27752 0.08467,0.36689 0.06115,0.0941 0.164628,0.16228 0.310445,0.20461 0.150518,0.0471 0.362184,0.0706 0.635,0.0706 0.399814,0 0.693796,-0.0517 0.881944,-0.15522 0.192852,-0.10349 0.289278,-0.25636 0.289278,-0.45861 0,-0.16933 -0.07761,-0.30104 -0.232834,-0.39512 -0.155222,-0.0894 -0.35513,-0.13405 -0.599722,-0.13405 l -0.663222,0 c -0.305741,0 -0.538574,-0.0658 -0.6985,-0.19756 -0.159926,-0.13641 -0.239889,-0.30574 -0.239889,-0.508 0,-0.11759 0.03528,-0.23283 0.105834,-0.34572 0.07055,-0.11759 0.171684,-0.21872 0.303388,-0.30339 -0.211667,-0.10818 -0.369241,-0.24459 -0.472722,-0.40922 -0.09878,-0.16933 -0.148166,-0.37394 -0.148166,-0.61383 0,-0.2493 0.06115,-0.47037 0.183444,-0.66322 0.127,-0.19756 0.301037,-0.35043 0.522111,-0.45862 0.225778,-0.11289 0.484481,-0.16933 0.776111,-0.16933 0.423333,0 0.745537,-0.0235 0.966611,-0.0705 0.221074,-0.0471 0.463314,-0.12703 0.726722,-0.23989 z m -1.876777,0.1905 c -0.286926,0 -0.503297,0.0776 -0.649112,0.23283 -0.145815,0.15052 -0.218722,0.35748 -0.218722,0.62089 0,0.26341 0.07291,0.47507 0.218722,0.635 0.150518,0.15522 0.371593,0.23283 0.663223,0.23283 0.263407,0 0.463314,-0.0753 0.599722,-0.22578 0.141111,-0.15522 0.211667,-0.37159 0.211667,-0.64911 0,-0.56444 -0.275167,-0.84666 -0.8255,-0.84666 z"
         style="font-style:normal;font-variant:normal;font-weight:normal;font-stretch:normal;font-size:7.05555534px;font-family:'Fira Code';-inkscape-font-specification:'Fira Code';stroke-width:0.26458332;fill:#ffffff;fill-opacity:1"
         id="path940"
         inkscape:connector-curvature="0"
         sodipodi:nodetypes="cccscsccsssccscscccccscscsscscccsccscccscscscss" />
    </g>
    <text
       xml:space="preserve"
       style="font-style:normal;font-variant:normal;font-weight:normal;font-stretch:normal;font-size:17.49999809px;line-height:1.25;font-family:'Vladimir Script';-inkscape-font-specification:'Vladimir Script';letter-spacing:0px;word-spacing:0px;fill:#ffffff;fill-opacity:1;stroke:none;stroke-width:0.26458332;"
       x="266.88254"
       y="446.96481"
       id="text946"
       inkscape:export-filename="c:\temp\log4tc.png"
       inkscape:export-xdpi="300"
       inkscape:export-ydpi="300"><tspan
         sodipodi:role="line"
         id="tspan944"
         x="266.88254"
         y="446.96481"
         style="font-style:normal;font-variant:normal;font-weight:normal;font-stretch:normal;font-family:'Vladimir Script';-inkscape-font-specification:'Vladimir Script';stroke-width:0.26458332;fill:#ffffff;fill-opacity:1;">4</tspan></text>
    <path
       style="opacity:1;fill:#d40000;fill-opacity:1;stroke:none;stroke-width:0.28257367;stroke-linecap:round;stroke-linejoin:miter;stroke-miterlimit:4;stroke-dasharray:none;stroke-dashoffset:0;stroke-opacity:1"
       inkscape:transform-center-x="0.035126161"
       inkscape:transform-center-y="-0.1172347"
       d="m 302.22639,418.35126 -1.63893,-0.2452 -1.63894,-0.24519 c 0.72003,-1.337 1.54109,-2.60476 2.38899,-3.8615 0.41994,1.56175 0.74091,2.84071 0.88888,4.35171 z"
       id="path948"
       inkscape:connector-curvature="0"
       sodipodi:nodetypes="ccccc"
       inkscape:export-filename="c:\temp\log4tc.png"
       inkscape:export-xdpi="300"
       inkscape:export-ydpi="300" />
  </g>
</svg>
