<svg width="20.609mm" height="12.954mm" version="1.1" viewBox="0 0 20.609 12.954" xmlns="http://www.w3.org/2000/svg" xmlns:xlink="http://www.w3.org/1999/xlink">
 <g transform="translate(-31.633 -161.08)">
  <g transform="translate(29.94 -11.598)" opacity=".396">
   <g transform="translate(-2.8397 10.128)" fill="none" stroke="#ba7c00" stroke-width=".4">
    <rect x="8.438" y="162.75" width="4.5133" height="6.7884" opacity="1" stroke-linecap="round"/>
    <rect x="16.626" y="162.75" width="4.3806" height="11.669" opacity="1" stroke-linecap="round"/>
    <g>
     <path d="m8.3802 164.6h-3.5079"/>
     <path d="m8.5138 167.71h-3.5079"/>
     <path d="m16.604 164.53h-3.5079"/>
     <path d="m16.604 167.74h-3.5079"/>
     <path d="m16.571 173.09h-11.493"/>
     <path d="m24.45 168.84h-3.5079"/>
    </g>
   </g>
  </g>
  <path d="m32.308 173.88c8.6038 0.068 17.42 0.53296 19.611-11.359" fill="none" stroke="#000" stroke-linecap="round" stroke-width=".265"/>
  <g>
   <g stroke-width=".26458">
    <text x="43.566708" y="165.7115" fill="#ffffff" font-family="'Fira Code'" font-size="4.9389px" letter-spacing="0px" word-spacing="0px" style="line-height:1.25" xml:space="preserve"><tspan x="43.566708" y="165.7115" fill="#ffffff" font-family="'Fira Code'" stroke-width=".26458">TC</tspan></text>
    <g transform="translate(21.592 60.287)">
     <path d="m11.776 108.18c0 0.33396 0.20461 0.50094 0.61383 0.50094 0.19285 0 0.39982-0.0423 0.62089-0.127l0.15522 0.43039c-0.23518 0.127-0.52917 0.1905-0.88194 0.1905-0.33396 0-0.60207-0.0917-0.80433-0.27517-0.19756-0.18344-0.29356-0.43275-0.29633-0.74789v-3.7959h-1.143v-0.47273h1.7357z"/>
     <path d="m15.237 105.3c0.5127 0 0.90546 0.17404 1.1783 0.52211 0.27752 0.34337 0.41628 0.81374 0.41628 1.4111 0 0.58326-0.14111 1.0536-0.42333 1.4111-0.27752 0.35278-0.67028 0.52917-1.1783 0.52917-0.5127 0-0.90781-0.17169-1.1853-0.51506-0.27752-0.34807-0.41628-0.82079-0.41628-1.4182 0-0.58797 0.13876-1.0583 0.41628-1.4111 0.28222-0.35278 0.67968-0.52917 1.1924-0.52917z" fill="#d40000"/>
     <path d="m20.851 105.55c-0.14111 0.047-0.29398 0.0776-0.45861 0.0917-0.16463 9e-3 -0.37394 0.0141-0.62794 0.0141 0.43274 0.19755 0.64911 0.51035 0.64911 0.93839 0 0.37629-0.12465 0.68203-0.37394 0.91722-0.2493 0.23048-0.59032 0.34572-1.0231 0.34572-0.22107 0-0.40687-0.0259-0.55739-0.0776-0.05645 0.0423-0.10348 0.0964-0.14111 0.16228-0.03293 0.0659-0.04939 0.13172-0.04939 0.19755 0 0.21167 0.16463 0.3175 0.49389 0.3175h0.67028c0.24459 0 0.46567 0.0447 0.66322 0.13406 0.20226 0.0847 0.35983 0.20461 0.47272 0.35983 0.11759 0.15523 0.17639 0.32691 0.17639 0.51506 0 0.36219-0.15522 0.6397-0.46567 0.83255-0.30574 0.19756-0.74083 0.29634-1.3053 0.29634-0.57385 0-0.97837-0.0894-1.2136-0.26811-0.23519-0.17875-0.35278-0.46332-0.35278-0.85373h0.53622c0 0.15523 0.02822 0.27752 0.08467 0.36689 0.06115 0.0941 0.16463 0.16228 0.31044 0.20461 0.15052 0.0471 0.36218 0.0706 0.635 0.0706 0.39981 0 0.6938-0.0517 0.88194-0.15522 0.19285-0.10349 0.28928-0.25636 0.28928-0.45861 0-0.16933-0.07761-0.30104-0.23283-0.39512-0.15522-0.0894-0.35513-0.13405-0.59972-0.13405h-0.66322c-0.30574 0-0.53857-0.0658-0.6985-0.19756-0.15993-0.13641-0.23989-0.30574-0.23989-0.508 0-0.11759 0.03528-0.23283 0.10583-0.34572 0.07055-0.11759 0.17168-0.21872 0.30339-0.30339-0.21167-0.10818-0.36924-0.24459-0.47272-0.40922-0.09878-0.16933-0.14817-0.37394-0.14817-0.61383 0-0.2493 0.06115-0.47037 0.18344-0.66322 0.127-0.19756 0.30104-0.35043 0.52211-0.45862 0.22578-0.11289 0.48448-0.16933 0.77611-0.16933 0.42333 0 0.74554-0.0235 0.96661-0.0705 0.22107-0.0471 0.46331-0.12703 0.72672-0.23989zm-1.8768 0.1905c-0.28693 0-0.5033 0.0776-0.64911 0.23283-0.14582 0.15052-0.21872 0.35748-0.21872 0.62089s0.07291 0.47507 0.21872 0.635c0.15052 0.15522 0.37159 0.23283 0.66322 0.23283 0.26341 0 0.46331-0.0753 0.59972-0.22578 0.14111-0.15522 0.21167-0.37159 0.21167-0.64911 0-0.56444-0.27517-0.84666-0.8255-0.84666z"/>
    </g>
    <text x="42.266884" y="171.35757" fill="#000000" font-family="'Vladimir Script'" font-size="4.9389px" letter-spacing="0px" word-spacing="0px" style="line-height:1.25" xml:space="preserve"><tspan x="42.266884" y="171.35757" font-family="'Vladimir Script'" stroke-width=".26458">4</tspan></text>
   </g>
   <path d="m52.242 163.28-0.92509-0.1384c0.20321-0.37733 0.43493-0.73512 0.67422-1.0898 0.11852 0.44076 0.2091 0.80171 0.25086 1.2282z" fill="#d40000"/>
  </g>
 </g>
</svg>
