<?xml version="1.0" encoding="UTF-8" standalone="no"?>
<svg
   xmlns:dc="http://purl.org/dc/elements/1.1/"
   xmlns:cc="http://creativecommons.org/ns#"
   xmlns:rdf="http://www.w3.org/1999/02/22-rdf-syntax-ns#"
   xmlns:svg="http://www.w3.org/2000/svg"
   xmlns="http://www.w3.org/2000/svg"
   xmlns:xlink="http://www.w3.org/1999/xlink"
   xmlns:sodipodi="http://sodipodi.sourceforge.net/DTD/sodipodi-0.dtd"
   xmlns:inkscape="http://www.inkscape.org/namespaces/inkscape"
   version="1.0"
   width="38.000000pt"
   height="38.000000pt"
   viewBox="0 0 172.000000 172.000000"
   preserveAspectRatio="xMidYMid meet"
   id="svg1083"
   sodipodi:docname="logo.svg"
   inkscape:version="0.92.3 (2405546, 2018-03-11)">
  <defs
     id="defs1087">
    <linearGradient
       inkscape:collect="always"
       xlink:href="#linearGradient1149"
       id="linearGradient1143"
       gradientUnits="userSpaceOnUse"
       gradientTransform="matrix(5.4261799,0,0,5.4261799,1.7531966,-836.73587)"
       x1="14.733232"
       y1="168.54358"
       x2="6.1806078"
       y2="159.92415" />
    <linearGradient
       id="linearGradient1149"
       inkscape:collect="always">
      <stop
         id="stop1145"
         offset="0"
         style="stop-color:#ffb72a;stop-opacity:1;" />
      <stop
         id="stop1147"
         offset="1"
         style="stop-color:#ffebc4;stop-opacity:1" />
    </linearGradient>
    <filter
       inkscape:collect="always"
       style="color-interpolation-filters:sRGB"
       id="filter1137"
       x="-0.1488"
       width="1.2976"
       y="-0.1488"
       height="1.2976">
      <feGaussianBlur
         inkscape:collect="always"
         stdDeviation="1.4955783"
         id="feGaussianBlur1139" />
    </filter>
  </defs>
  <sodipodi:namedview
     pagecolor="#ffffff"
     bordercolor="#666666"
     borderopacity="1"
     objecttolerance="10"
     gridtolerance="10"
     guidetolerance="10"
     inkscape:pageopacity="0"
     inkscape:pageshadow="2"
     inkscape:window-width="1920"
     inkscape:window-height="1017"
     id="namedview1085"
     showgrid="false"
     inkscape:zoom="4.6578947"
     inkscape:cx="25.333333"
     inkscape:cy="25.333333"
     inkscape:window-x="-8"
     inkscape:window-y="-8"
     inkscape:window-maximized="1"
     inkscape:current-layer="svg1083" />
  <metadata
     id="metadata1073">
Created by Docfx
<rdf:RDF>
  <cc:Work
     rdf:about="">
    <dc:format>image/svg+xml</dc:format>
    <dc:type
       rdf:resource="http://purl.org/dc/dcmitype/StillImage" />
  </cc:Work>
</rdf:RDF>
</metadata>
  <rect
     transform="matrix(5.4261799,0,0,5.4261799,-145.29738,-828.75886)"
     ry="0.6241405"
     y="156.52136"
     x="30.699389"
     height="24.122231"
     width="24.122231"
     id="rect1029"
     style="opacity:0.65899999;fill:#000000;fill-opacity:1;stroke:none;stroke-width:0.33324438;stroke-linecap:round;stroke-linejoin:miter;stroke-miterlimit:4;stroke-dasharray:none;stroke-dashoffset:0;stroke-opacity:1;filter:url(#filter1137)"
     inkscape:export-filename="c:\temp\log4tc.png"
     inkscape:export-xdpi="300"
     inkscape:export-ydpi="300" />
  <rect
     ry="3.3866987"
     y="12.577829"
     x="14.7569"
     height="130.89157"
     width="130.89157"
     id="rect1141"
     style="opacity:1;fill:#ffb72a;fill-opacity:1;stroke:#ba7c00;stroke-width:1.80824399;stroke-linecap:round;stroke-linejoin:miter;stroke-miterlimit:4;stroke-dasharray:none;stroke-dashoffset:0;stroke-opacity:1"
     inkscape:export-filename="c:\temp\log4tc.png"
     inkscape:export-xdpi="300"
     inkscape:export-ydpi="300" />
  <rect
     style="opacity:1;fill:url(#linearGradient1143);fill-opacity:1;stroke:#ba7c00;stroke-width:1.80824399;stroke-linecap:round;stroke-linejoin:miter;stroke-miterlimit:4;stroke-dasharray:none;stroke-dashoffset:0;stroke-opacity:1"
     id="rect944"
     width="130.89157"
     height="130.89157"
     x="14.7569"
     y="12.577829"
     ry="3.3866987"
     inkscape:export-filename="c:\temp\log4tc.png"
     inkscape:export-xdpi="300"
     inkscape:export-ydpi="300" />
  <g
     id="g1025"
     style="opacity:0.39599998"
     transform="matrix(5.4261799,0,0,5.4261799,17.162161,-891.6896)"
     inkscape:export-filename="c:\temp\log4tc.png"
     inkscape:export-xdpi="300"
     inkscape:export-ydpi="300">
    <g
       transform="translate(-2.8397442,10.127519)"
       id="g976">
      <rect
         style="opacity:1;fill:none;fill-opacity:1;stroke:#ba7c00;stroke-width:0.40000001;stroke-linecap:round;stroke-linejoin:miter;stroke-miterlimit:4;stroke-dasharray:none;stroke-dashoffset:0;stroke-opacity:1"
         id="rect946"
         width="4.5133162"
         height="6.7883964"
         x="8.4380045"
         y="162.74808" />
      <rect
         y="162.74808"
         x="16.625702"
         height="11.669"
         width="4.3806367"
         id="rect948"
         style="opacity:1;fill:none;fill-opacity:1;stroke:#ba7c00;stroke-width:0.40000001;stroke-linecap:round;stroke-linejoin:miter;stroke-miterlimit:4;stroke-dasharray:none;stroke-dashoffset:0;stroke-opacity:1" />
      <path
         style="fill:none;stroke:#ba7c00;stroke-width:0.40000001;stroke-linecap:butt;stroke-linejoin:miter;stroke-miterlimit:4;stroke-dasharray:none;stroke-opacity:1"
         d="M 8.3802089,164.60135 H 4.8722965"
         id="path954"
         inkscape:connector-curvature="0" />
      <path
         inkscape:connector-curvature="0"
         id="path956"
         d="M 8.5138437,167.70836 H 5.0059313"
         style="fill:none;stroke:#ba7c00;stroke-width:0.40000001;stroke-linecap:butt;stroke-linejoin:miter;stroke-miterlimit:4;stroke-dasharray:none;stroke-opacity:1" />
      <path
         style="fill:none;stroke:#ba7c00;stroke-width:0.40000001;stroke-linecap:butt;stroke-linejoin:miter;stroke-miterlimit:4;stroke-dasharray:none;stroke-opacity:1"
         d="M 16.60412,164.53453 H 13.096207"
         id="path958"
         inkscape:connector-curvature="0" />
      <path
         inkscape:connector-curvature="0"
         id="path962"
         d="M 16.60412,167.74176 H 13.096207"
         style="fill:none;stroke:#ba7c00;stroke-width:0.40000001;stroke-linecap:butt;stroke-linejoin:miter;stroke-miterlimit:4;stroke-dasharray:none;stroke-opacity:1" />
      <path
         style="fill:none;stroke:#ba7c00;stroke-width:0.40000001;stroke-linecap:butt;stroke-linejoin:miter;stroke-miterlimit:4;stroke-dasharray:none;stroke-opacity:1"
         d="M 16.570711,173.08715 H 5.0781209"
         id="path964"
         inkscape:connector-curvature="0"
         sodipodi:nodetypes="cc" />
      <path
         inkscape:connector-curvature="0"
         id="path966"
         d="M 24.449789,168.84425 H 20.941877"
         style="fill:none;stroke:#ba7c00;stroke-width:0.40000001;stroke-linecap:butt;stroke-linejoin:miter;stroke-miterlimit:4;stroke-dasharray:none;stroke-opacity:1" />
    </g>
  </g>
  <g
     transform="matrix(5.4261799,0,0,5.4261799,-145.29738,-828.75886)"
     id="g931"
     inkscape:export-filename="c:\temp\log4tc.png"
     inkscape:export-xdpi="300"
     inkscape:export-ydpi="300">
    <path
       inkscape:export-ydpi="300"
       inkscape:export-xdpi="300"
       inkscape:export-filename="c:\temp\log4tc.png"
       sodipodi:nodetypes="cc"
       inkscape:connector-curvature="0"
       id="path901"
       d="m 32.307973,173.87863 c 8.603805,0.068 17.420414,0.53296 19.610902,-11.35896"
       style="fill:none;stroke:#000000;stroke-width:0.26499999;stroke-linecap:round;stroke-linejoin:miter;stroke-miterlimit:4;stroke-dasharray:none;stroke-opacity:1" />
    <text
       xml:space="preserve"
       style="font-style:normal;font-variant:normal;font-weight:normal;font-stretch:normal;font-size:4.93888855px;line-height:1.25;font-family:'Fira Code';-inkscape-font-specification:'Fira Code';letter-spacing:0px;word-spacing:0px;fill:#ffffff;fill-opacity:1;stroke:none;stroke-width:0.26458332"
       x="43.566708"
       y="165.7115"
       id="text905"
       inkscape:export-filename="c:\temp\log4tc.png"
       inkscape:export-xdpi="300"
       inkscape:export-ydpi="300"><tspan
         sodipodi:role="line"
         id="tspan903"
         x="43.566708"
         y="165.7115"
         style="font-style:normal;font-variant:normal;font-weight:normal;font-stretch:normal;font-family:'Fira Code';-inkscape-font-specification:'Fira Code';fill:#ffffff;stroke-width:0.26458332">TC</tspan></text>
    <g
       transform="translate(21.59189,60.287203)"
       aria-label="log"
       style="font-style:normal;font-variant:normal;font-weight:normal;font-stretch:normal;font-size:7.05555534px;line-height:1.25;font-family:'Fira Code';-inkscape-font-specification:'Fira Code';letter-spacing:0px;word-spacing:0px;fill:#000000;fill-opacity:1;stroke:none;stroke-width:0.26458332"
       id="g913"
       inkscape:export-filename="c:\temp\log4tc.png"
       inkscape:export-xdpi="300"
       inkscape:export-ydpi="300">
      <path
         d="m 11.77643,108.18136 c 0,0.33396 0.204611,0.50094 0.613833,0.50094 0.192852,0 0.399815,-0.0423 0.620889,-0.127 l 0.155222,0.43039 c -0.235185,0.127 -0.529166,0.1905 -0.881944,0.1905 -0.333963,0 -0.602074,-0.0917 -0.804334,-0.27517 -0.197555,-0.18344 -0.293559,-0.43275 -0.296333,-0.74789 v -3.79588 h -1.143 v -0.47273 h 1.735667 z"
         style="font-style:normal;font-variant:normal;font-weight:normal;font-stretch:normal;font-size:7.05555534px;font-family:'Fira Code';-inkscape-font-specification:'Fira Code';stroke-width:0.26458332"
         id="path907"
         inkscape:connector-curvature="0"
         sodipodi:nodetypes="ssccscsccccs" />
      <path
         d="m 15.236738,105.30269 c 0.512703,0 0.905463,0.17404 1.178278,0.52211 0.277518,0.34337 0.416277,0.81374 0.416277,1.41111 0,0.58326 -0.141111,1.05363 -0.423333,1.41111 -0.277519,0.35278 -0.670278,0.52917 -1.178278,0.52917 -0.512703,0 -0.907814,-0.17169 -1.185333,-0.51506 -0.277519,-0.34807 -0.416278,-0.82079 -0.416278,-1.41816 0,-0.58797 0.138759,-1.05834 0.416278,-1.41111 0.282222,-0.35278 0.679685,-0.52917 1.192389,-0.52917 z"
         style="font-style:normal;font-variant:normal;font-weight:normal;font-stretch:normal;font-size:7.05555534px;font-family:'Fira Code';-inkscape-font-specification:'Fira Code';fill:#d40000;stroke-width:0.26458332"
         id="path909"
         inkscape:connector-curvature="0"
         sodipodi:nodetypes="scscscscs" />
      <path
         d="m 20.851466,105.54964 c -0.141111,0.047 -0.293981,0.0776 -0.458611,0.0917 -0.16463,0.009 -0.373944,0.0141 -0.627944,0.0141 0.43274,0.19755 0.649111,0.51035 0.649111,0.93839 0,0.37629 -0.124649,0.68203 -0.373945,0.91722 -0.249296,0.23048 -0.590315,0.34572 -1.023055,0.34572 -0.221074,0 -0.406871,-0.0259 -0.557389,-0.0776 -0.05645,0.0423 -0.103484,0.0964 -0.141111,0.16228 -0.03293,0.0659 -0.04939,0.13172 -0.04939,0.19755 0,0.21167 0.164629,0.3175 0.493889,0.3175 h 0.670278 c 0.244592,0 0.465666,0.0447 0.663222,0.13406 0.202259,0.0847 0.359833,0.20461 0.472722,0.35983 0.117592,0.15523 0.176389,0.32691 0.176389,0.51506 0,0.36219 -0.155223,0.6397 -0.465667,0.83255 -0.305741,0.19756 -0.740833,0.29634 -1.305277,0.29634 -0.573852,0 -0.978371,-0.0894 -1.213556,-0.26811 -0.235186,-0.17875 -0.352778,-0.46332 -0.352778,-0.85373 h 0.536223 c 0,0.15523 0.02822,0.27752 0.08467,0.36689 0.06115,0.0941 0.164628,0.16228 0.310445,0.20461 0.150518,0.0471 0.362184,0.0706 0.635,0.0706 0.399814,0 0.693796,-0.0517 0.881944,-0.15522 0.192852,-0.10349 0.289278,-0.25636 0.289278,-0.45861 0,-0.16933 -0.07761,-0.30104 -0.232834,-0.39512 -0.155222,-0.0894 -0.35513,-0.13405 -0.599722,-0.13405 h -0.663222 c -0.305741,0 -0.538574,-0.0658 -0.6985,-0.19756 -0.159926,-0.13641 -0.239889,-0.30574 -0.239889,-0.508 0,-0.11759 0.03528,-0.23283 0.105834,-0.34572 0.07055,-0.11759 0.171684,-0.21872 0.303388,-0.30339 -0.211667,-0.10818 -0.369241,-0.24459 -0.472722,-0.40922 -0.09878,-0.16933 -0.148166,-0.37394 -0.148166,-0.61383 0,-0.2493 0.06115,-0.47037 0.183444,-0.66322 0.127,-0.19756 0.301037,-0.35043 0.522111,-0.45862 0.225778,-0.11289 0.484481,-0.16933 0.776111,-0.16933 0.423333,0 0.745537,-0.0235 0.966611,-0.0705 0.221074,-0.0471 0.463314,-0.12703 0.726722,-0.23989 z m -1.876777,0.1905 c -0.286926,0 -0.503297,0.0776 -0.649112,0.23283 -0.145815,0.15052 -0.218722,0.35748 -0.218722,0.62089 0,0.26341 0.07291,0.47507 0.218722,0.635 0.150518,0.15522 0.371593,0.23283 0.663223,0.23283 0.263407,0 0.463314,-0.0753 0.599722,-0.22578 0.141111,-0.15522 0.211667,-0.37159 0.211667,-0.64911 0,-0.56444 -0.275167,-0.84666 -0.8255,-0.84666 z"
         style="font-style:normal;font-variant:normal;font-weight:normal;font-stretch:normal;font-size:7.05555534px;font-family:'Fira Code';-inkscape-font-specification:'Fira Code';stroke-width:0.26458332"
         id="path911"
         inkscape:connector-curvature="0"
         sodipodi:nodetypes="cccscsccsssccscscccccscscsscscccsccscccscscscss" />
    </g>
    <text
       xml:space="preserve"
       style="font-style:normal;font-variant:normal;font-weight:normal;font-stretch:normal;font-size:4.93888855px;line-height:1.25;font-family:'Vladimir Script';-inkscape-font-specification:'Vladimir Script';letter-spacing:0px;word-spacing:0px;fill:#000000;fill-opacity:1;stroke:none;stroke-width:0.26458332"
       x="42.266884"
       y="171.35757"
       id="text917"
       inkscape:export-filename="c:\temp\log4tc.png"
       inkscape:export-xdpi="300"
       inkscape:export-ydpi="300"><tspan
         sodipodi:role="line"
         id="tspan915"
         x="42.266884"
         y="171.35757"
         style="font-style:normal;font-variant:normal;font-weight:normal;font-stretch:normal;font-family:'Vladimir Script';-inkscape-font-specification:'Vladimir Script';stroke-width:0.26458332">4</tspan></text>
    <path
       style="opacity:1;fill:#d40000;fill-opacity:1;stroke:none;stroke-width:0.28257367;stroke-linecap:round;stroke-linejoin:miter;stroke-miterlimit:4;stroke-dasharray:none;stroke-dashoffset:0;stroke-opacity:1"
       inkscape:transform-center-x="0.035126161"
       inkscape:transform-center-y="-0.1172347"
       d="m 52.241704,163.2822 -0.462542,-0.0692 -0.462544,-0.0692 c 0.203207,-0.37733 0.434928,-0.73512 0.674225,-1.0898 0.118518,0.44076 0.209102,0.80171 0.250861,1.22815 z"
       id="path919"
       inkscape:connector-curvature="0"
       sodipodi:nodetypes="ccccc"
       inkscape:export-filename="c:\temp\log4tc.png"
       inkscape:export-xdpi="300"
       inkscape:export-ydpi="300" />
  </g>
</svg>
